<svg width="154" height="168" viewBox="0 0 154 168" xmlns="http://www.w3.org/2000/svg"><path d="M110.564 0l-7.812 73.72-13.32-62.15-41.777 8.81 13.32 62.148L.75 95.222l10.64 49.643 105.9 22.323 24.218-53.947L153.042 4.43 110.564 0zM77.102 106.945c-2.186 1.983-5.076 1.8-8.134.79-3.062-1.007-4.42-4.676-3.263-9.11.862-3.295 4.926-3.786 6.96-3.82.77-.015 1.53.14 2.232.455 1.438.645 3.872 2.026 4.365 4.13.71 3.028.026 5.57-2.16 7.555zm30.658 3.42c-1.59 2.734-5.753 3.096-9.85 1.107-2.763-1.343-2.748-4.76-2.447-6.842.164-1.136.62-2.205 1.34-3.107.986-1.24 2.633-2.856 4.535-2.906 3.093-.08 5.755 1.296 7.257 3.785 1.51 2.486.755 5.224-.835 7.964z" fill="#FFF" fill-rule="evenodd"/></svg>